<mxfile host="app.diagrams.net" agent="Mozilla/5.0 (Windows NT 10.0; Win64; x64) AppleWebKit/537.36 (KHTML, like Gecko) Chrome/133.0.0.0 Safari/537.36" version="26.0.16">
  <diagram name="P치gina-1" id="Tpv9L3PU1leUGgII9LrM">
    <mxGraphModel dx="1687" dy="889" grid="1" gridSize="10" guides="1" tooltips="1" connect="1" arrows="1" fold="1" page="1" pageScale="1" pageWidth="827" pageHeight="1169" math="0" shadow="0">
      <root>
        <mxCell id="0" />
        <mxCell id="1" parent="0" />
        <mxCell id="YOabG5_CWoI5abRTxAFG-1" value="" style="rounded=1;whiteSpace=wrap;html=1;" parent="1" vertex="1">
          <mxGeometry x="120" y="160" width="400" height="240" as="geometry" />
        </mxCell>
        <mxCell id="tpQfdJ8z_NB4iug-ilj6-1" value="" style="group" vertex="1" connectable="0" parent="1">
          <mxGeometry x="100" y="100" width="1570" height="940" as="geometry" />
        </mxCell>
        <mxCell id="tpQfdJ8z_NB4iug-ilj6-2" value="" style="rounded=0;whiteSpace=wrap;html=1;" vertex="1" parent="tpQfdJ8z_NB4iug-ilj6-1">
          <mxGeometry width="1570" height="940" as="geometry" />
        </mxCell>
        <mxCell id="tpQfdJ8z_NB4iug-ilj6-3" value="" style="group" vertex="1" connectable="0" parent="tpQfdJ8z_NB4iug-ilj6-1">
          <mxGeometry x="60" y="100" width="1400" height="720" as="geometry" />
        </mxCell>
        <mxCell id="tpQfdJ8z_NB4iug-ilj6-4" value="" style="rounded=0;whiteSpace=wrap;html=1;" vertex="1" parent="tpQfdJ8z_NB4iug-ilj6-3">
          <mxGeometry x="230" y="30" width="1170" height="690" as="geometry" />
        </mxCell>
        <mxCell id="tpQfdJ8z_NB4iug-ilj6-5" value="Actor" style="shape=umlActor;verticalLabelPosition=bottom;verticalAlign=top;html=1;outlineConnect=0;" vertex="1" parent="tpQfdJ8z_NB4iug-ilj6-3">
          <mxGeometry y="402.5" width="30" height="60" as="geometry" />
        </mxCell>
        <mxCell id="tpQfdJ8z_NB4iug-ilj6-6" value="" style="outlineConnect=0;dashed=0;verticalLabelPosition=bottom;verticalAlign=top;align=center;html=1;shape=mxgraph.aws3.ec2;fillColor=#F58534;gradientColor=none;" vertex="1" parent="tpQfdJ8z_NB4iug-ilj6-3">
          <mxGeometry x="210" width="100" height="106" as="geometry" />
        </mxCell>
        <mxCell id="tpQfdJ8z_NB4iug-ilj6-7" value="" style="outlineConnect=0;dashed=0;verticalLabelPosition=bottom;verticalAlign=top;align=center;html=1;shape=mxgraph.aws3.management_console;fillColor=#F58534;gradientColor=none;" vertex="1" parent="tpQfdJ8z_NB4iug-ilj6-3">
          <mxGeometry x="110" y="400.5" width="63" height="63" as="geometry" />
        </mxCell>
        <mxCell id="tpQfdJ8z_NB4iug-ilj6-8" style="edgeStyle=orthogonalEdgeStyle;rounded=0;orthogonalLoop=1;jettySize=auto;html=1;entryX=0;entryY=0.5;entryDx=0;entryDy=0;entryPerimeter=0;" edge="1" parent="tpQfdJ8z_NB4iug-ilj6-3" source="tpQfdJ8z_NB4iug-ilj6-5" target="tpQfdJ8z_NB4iug-ilj6-7">
          <mxGeometry relative="1" as="geometry" />
        </mxCell>
        <mxCell id="tpQfdJ8z_NB4iug-ilj6-9" style="edgeStyle=orthogonalEdgeStyle;rounded=0;orthogonalLoop=1;jettySize=auto;html=1;entryX=0;entryY=0.5;entryDx=0;entryDy=0;" edge="1" parent="tpQfdJ8z_NB4iug-ilj6-3" source="tpQfdJ8z_NB4iug-ilj6-10" target="tpQfdJ8z_NB4iug-ilj6-13">
          <mxGeometry relative="1" as="geometry" />
        </mxCell>
        <mxCell id="tpQfdJ8z_NB4iug-ilj6-10" value="" style="outlineConnect=0;dashed=0;verticalLabelPosition=bottom;verticalAlign=top;align=center;html=1;shape=mxgraph.aws3.application_load_balancer;fillColor=#F58534;gradientColor=none;" vertex="1" parent="tpQfdJ8z_NB4iug-ilj6-3">
          <mxGeometry x="270" y="396" width="69" height="72" as="geometry" />
        </mxCell>
        <mxCell id="tpQfdJ8z_NB4iug-ilj6-11" style="edgeStyle=orthogonalEdgeStyle;rounded=0;orthogonalLoop=1;jettySize=auto;html=1;entryX=0;entryY=0.5;entryDx=0;entryDy=0;entryPerimeter=0;" edge="1" parent="tpQfdJ8z_NB4iug-ilj6-3" source="tpQfdJ8z_NB4iug-ilj6-7" target="tpQfdJ8z_NB4iug-ilj6-10">
          <mxGeometry relative="1" as="geometry" />
        </mxCell>
        <mxCell id="tpQfdJ8z_NB4iug-ilj6-12" style="edgeStyle=orthogonalEdgeStyle;rounded=0;orthogonalLoop=1;jettySize=auto;html=1;entryX=0;entryY=0.5;entryDx=0;entryDy=0;" edge="1" parent="tpQfdJ8z_NB4iug-ilj6-3" source="tpQfdJ8z_NB4iug-ilj6-13" target="tpQfdJ8z_NB4iug-ilj6-34">
          <mxGeometry relative="1" as="geometry" />
        </mxCell>
        <mxCell id="tpQfdJ8z_NB4iug-ilj6-13" value="Servicio Autenticaci칩n&lt;div&gt;Autorizaci칩n&lt;/div&gt;&lt;div&gt;&lt;br&gt;&lt;/div&gt;&lt;div&gt;&lt;br&gt;&lt;/div&gt;&lt;div&gt;&lt;br&gt;&lt;/div&gt;&lt;div&gt;&lt;br&gt;&lt;/div&gt;&lt;div&gt;&lt;br&gt;&lt;/div&gt;" style="html=1;whiteSpace=wrap;" vertex="1" parent="tpQfdJ8z_NB4iug-ilj6-3">
          <mxGeometry x="390" y="369.5" width="140" height="124" as="geometry" />
        </mxCell>
        <mxCell id="tpQfdJ8z_NB4iug-ilj6-14" value="APP" style="shape=module;align=left;spacingLeft=20;align=center;verticalAlign=top;whiteSpace=wrap;html=1;" vertex="1" parent="tpQfdJ8z_NB4iug-ilj6-3">
          <mxGeometry x="410" y="430" width="100" height="50" as="geometry" />
        </mxCell>
        <mxCell id="tpQfdJ8z_NB4iug-ilj6-15" style="edgeStyle=orthogonalEdgeStyle;rounded=0;orthogonalLoop=1;jettySize=auto;html=1;entryX=0.25;entryY=0;entryDx=0;entryDy=0;" edge="1" parent="tpQfdJ8z_NB4iug-ilj6-3" source="tpQfdJ8z_NB4iug-ilj6-16" target="tpQfdJ8z_NB4iug-ilj6-37">
          <mxGeometry relative="1" as="geometry" />
        </mxCell>
        <mxCell id="tpQfdJ8z_NB4iug-ilj6-16" value="&lt;div&gt;Servicio de integraci칩n bancaria&lt;/div&gt;&lt;div&gt;&lt;br&gt;&lt;/div&gt;&lt;div&gt;&lt;br&gt;&lt;/div&gt;&lt;div&gt;&lt;br&gt;&lt;/div&gt;&lt;div&gt;&lt;br&gt;&lt;/div&gt;&lt;div&gt;&lt;br&gt;&lt;/div&gt;" style="html=1;whiteSpace=wrap;" vertex="1" parent="tpQfdJ8z_NB4iug-ilj6-3">
          <mxGeometry x="810" y="215" width="140" height="124" as="geometry" />
        </mxCell>
        <mxCell id="tpQfdJ8z_NB4iug-ilj6-17" value="APP" style="shape=module;align=left;spacingLeft=20;align=center;verticalAlign=top;whiteSpace=wrap;html=1;" vertex="1" parent="tpQfdJ8z_NB4iug-ilj6-3">
          <mxGeometry x="830" y="275.5" width="100" height="50" as="geometry" />
        </mxCell>
        <mxCell id="tpQfdJ8z_NB4iug-ilj6-18" style="edgeStyle=orthogonalEdgeStyle;rounded=0;orthogonalLoop=1;jettySize=auto;html=1;entryX=0;entryY=0.5;entryDx=0;entryDy=0;" edge="1" parent="tpQfdJ8z_NB4iug-ilj6-3" source="tpQfdJ8z_NB4iug-ilj6-20" target="tpQfdJ8z_NB4iug-ilj6-37">
          <mxGeometry relative="1" as="geometry" />
        </mxCell>
        <mxCell id="tpQfdJ8z_NB4iug-ilj6-19" style="edgeStyle=orthogonalEdgeStyle;rounded=0;orthogonalLoop=1;jettySize=auto;html=1;entryX=0.5;entryY=0;entryDx=0;entryDy=0;" edge="1" parent="tpQfdJ8z_NB4iug-ilj6-3" source="tpQfdJ8z_NB4iug-ilj6-20" target="tpQfdJ8z_NB4iug-ilj6-24">
          <mxGeometry relative="1" as="geometry" />
        </mxCell>
        <mxCell id="tpQfdJ8z_NB4iug-ilj6-20" value="&lt;div&gt;Servicio de control de versiones&lt;/div&gt;&lt;div&gt;&lt;br&gt;&lt;/div&gt;&lt;div&gt;&lt;br&gt;&lt;/div&gt;&lt;div&gt;&lt;br&gt;&lt;/div&gt;&lt;div&gt;&lt;br&gt;&lt;/div&gt;&lt;div&gt;&lt;br&gt;&lt;/div&gt;" style="html=1;whiteSpace=wrap;" vertex="1" parent="tpQfdJ8z_NB4iug-ilj6-3">
          <mxGeometry x="810" y="370" width="140" height="124" as="geometry" />
        </mxCell>
        <mxCell id="tpQfdJ8z_NB4iug-ilj6-21" value="APP" style="shape=module;align=left;spacingLeft=20;align=center;verticalAlign=top;whiteSpace=wrap;html=1;" vertex="1" parent="tpQfdJ8z_NB4iug-ilj6-3">
          <mxGeometry x="830" y="430.5" width="100" height="50" as="geometry" />
        </mxCell>
        <mxCell id="tpQfdJ8z_NB4iug-ilj6-22" value="" style="shape=image;html=1;verticalAlign=top;verticalLabelPosition=bottom;labelBackgroundColor=#ffffff;imageAspect=0;aspect=fixed;image=https://cdn1.iconfinder.com/data/icons/unicons-line-vol-3/24/docker-128.png" vertex="1" parent="tpQfdJ8z_NB4iug-ilj6-3">
          <mxGeometry x="360" y="340" width="56" height="56" as="geometry" />
        </mxCell>
        <mxCell id="tpQfdJ8z_NB4iug-ilj6-23" style="edgeStyle=orthogonalEdgeStyle;rounded=0;orthogonalLoop=1;jettySize=auto;html=1;entryX=0.25;entryY=1;entryDx=0;entryDy=0;" edge="1" parent="tpQfdJ8z_NB4iug-ilj6-3" source="tpQfdJ8z_NB4iug-ilj6-24" target="tpQfdJ8z_NB4iug-ilj6-37">
          <mxGeometry relative="1" as="geometry" />
        </mxCell>
        <mxCell id="tpQfdJ8z_NB4iug-ilj6-24" value="&lt;div&gt;Servicio de almacenamiento&lt;/div&gt;&lt;div&gt;&lt;br&gt;&lt;/div&gt;&lt;div&gt;&lt;br&gt;&lt;/div&gt;&lt;div&gt;&lt;br&gt;&lt;/div&gt;&lt;div&gt;&lt;br&gt;&lt;/div&gt;&lt;div&gt;&lt;br&gt;&lt;/div&gt;" style="html=1;whiteSpace=wrap;" vertex="1" parent="tpQfdJ8z_NB4iug-ilj6-3">
          <mxGeometry x="810" y="524" width="140" height="124" as="geometry" />
        </mxCell>
        <mxCell id="tpQfdJ8z_NB4iug-ilj6-25" value="APP" style="shape=module;align=left;spacingLeft=20;align=center;verticalAlign=top;whiteSpace=wrap;html=1;" vertex="1" parent="tpQfdJ8z_NB4iug-ilj6-3">
          <mxGeometry x="830" y="584.5" width="100" height="50" as="geometry" />
        </mxCell>
        <mxCell id="tpQfdJ8z_NB4iug-ilj6-26" value="" style="outlineConnect=0;dashed=0;verticalLabelPosition=bottom;verticalAlign=top;align=center;html=1;shape=mxgraph.aws3.rds;fillColor=#2E73B8;gradientColor=none;" vertex="1" parent="tpQfdJ8z_NB4iug-ilj6-3">
          <mxGeometry x="790" y="506" width="36" height="42" as="geometry" />
        </mxCell>
        <mxCell id="tpQfdJ8z_NB4iug-ilj6-27" value="" style="shape=image;html=1;verticalAlign=top;verticalLabelPosition=bottom;labelBackgroundColor=#ffffff;imageAspect=0;aspect=fixed;image=https://cdn1.iconfinder.com/data/icons/unicons-line-vol-3/24/docker-128.png" vertex="1" parent="tpQfdJ8z_NB4iug-ilj6-3">
          <mxGeometry x="780" y="345.5" width="56" height="56" as="geometry" />
        </mxCell>
        <mxCell id="tpQfdJ8z_NB4iug-ilj6-28" value="" style="shape=image;html=1;verticalAlign=top;verticalLabelPosition=bottom;labelBackgroundColor=#ffffff;imageAspect=0;aspect=fixed;image=https://cdn1.iconfinder.com/data/icons/unicons-line-vol-3/24/docker-128.png" vertex="1" parent="tpQfdJ8z_NB4iug-ilj6-3">
          <mxGeometry x="780" y="185" width="56" height="56" as="geometry" />
        </mxCell>
        <mxCell id="tpQfdJ8z_NB4iug-ilj6-29" style="edgeStyle=orthogonalEdgeStyle;rounded=0;orthogonalLoop=1;jettySize=auto;html=1;entryX=0;entryY=0.5;entryDx=0;entryDy=0;" edge="1" parent="tpQfdJ8z_NB4iug-ilj6-3" source="tpQfdJ8z_NB4iug-ilj6-34" target="tpQfdJ8z_NB4iug-ilj6-16">
          <mxGeometry relative="1" as="geometry" />
        </mxCell>
        <mxCell id="tpQfdJ8z_NB4iug-ilj6-30" style="edgeStyle=orthogonalEdgeStyle;rounded=0;orthogonalLoop=1;jettySize=auto;html=1;entryX=0;entryY=0.5;entryDx=0;entryDy=0;" edge="1" parent="tpQfdJ8z_NB4iug-ilj6-3" source="tpQfdJ8z_NB4iug-ilj6-34" target="tpQfdJ8z_NB4iug-ilj6-20">
          <mxGeometry relative="1" as="geometry" />
        </mxCell>
        <mxCell id="tpQfdJ8z_NB4iug-ilj6-31" style="edgeStyle=orthogonalEdgeStyle;rounded=0;orthogonalLoop=1;jettySize=auto;html=1;entryX=0;entryY=0.5;entryDx=0;entryDy=0;" edge="1" parent="tpQfdJ8z_NB4iug-ilj6-3" source="tpQfdJ8z_NB4iug-ilj6-34" target="tpQfdJ8z_NB4iug-ilj6-24">
          <mxGeometry relative="1" as="geometry" />
        </mxCell>
        <mxCell id="tpQfdJ8z_NB4iug-ilj6-32" style="edgeStyle=orthogonalEdgeStyle;rounded=0;orthogonalLoop=1;jettySize=auto;html=1;entryX=0.75;entryY=1;entryDx=0;entryDy=0;exitX=0.75;exitY=1;exitDx=0;exitDy=0;" edge="1" parent="tpQfdJ8z_NB4iug-ilj6-3" source="tpQfdJ8z_NB4iug-ilj6-34" target="tpQfdJ8z_NB4iug-ilj6-37">
          <mxGeometry relative="1" as="geometry">
            <Array as="points">
              <mxPoint x="690" y="495" />
              <mxPoint x="690" y="670" />
              <mxPoint x="1135" y="670" />
            </Array>
          </mxGeometry>
        </mxCell>
        <mxCell id="tpQfdJ8z_NB4iug-ilj6-33" style="edgeStyle=orthogonalEdgeStyle;rounded=0;orthogonalLoop=1;jettySize=auto;html=1;exitX=0.25;exitY=1;exitDx=0;exitDy=0;entryX=0.5;entryY=1;entryDx=0;entryDy=0;" edge="1" parent="tpQfdJ8z_NB4iug-ilj6-3" source="tpQfdJ8z_NB4iug-ilj6-34" target="tpQfdJ8z_NB4iug-ilj6-40">
          <mxGeometry relative="1" as="geometry">
            <Array as="points">
              <mxPoint x="625" y="700" />
              <mxPoint x="1297" y="700" />
            </Array>
          </mxGeometry>
        </mxCell>
        <mxCell id="tpQfdJ8z_NB4iug-ilj6-34" value="Servicio de procesamiento de planillas&lt;div&gt;&lt;br&gt;&lt;/div&gt;&lt;div&gt;&lt;br&gt;&lt;/div&gt;&lt;div&gt;&lt;br&gt;&lt;/div&gt;&lt;div&gt;&lt;br&gt;&lt;/div&gt;&lt;div&gt;&lt;br&gt;&lt;/div&gt;" style="html=1;whiteSpace=wrap;" vertex="1" parent="tpQfdJ8z_NB4iug-ilj6-3">
          <mxGeometry x="590" y="370.5" width="140" height="124" as="geometry" />
        </mxCell>
        <mxCell id="tpQfdJ8z_NB4iug-ilj6-35" value="APP" style="shape=module;align=left;spacingLeft=20;align=center;verticalAlign=top;whiteSpace=wrap;html=1;" vertex="1" parent="tpQfdJ8z_NB4iug-ilj6-3">
          <mxGeometry x="610" y="431" width="100" height="50" as="geometry" />
        </mxCell>
        <mxCell id="tpQfdJ8z_NB4iug-ilj6-36" style="edgeStyle=orthogonalEdgeStyle;rounded=0;orthogonalLoop=1;jettySize=auto;html=1;entryX=0;entryY=0.5;entryDx=0;entryDy=0;" edge="1" parent="tpQfdJ8z_NB4iug-ilj6-3" source="tpQfdJ8z_NB4iug-ilj6-37" target="tpQfdJ8z_NB4iug-ilj6-40">
          <mxGeometry relative="1" as="geometry" />
        </mxCell>
        <mxCell id="tpQfdJ8z_NB4iug-ilj6-37" value="&lt;div&gt;Servicio de historial y auditoria&lt;/div&gt;&lt;div&gt;&lt;br&gt;&lt;/div&gt;&lt;div&gt;&lt;br&gt;&lt;/div&gt;&lt;div&gt;&lt;br&gt;&lt;/div&gt;&lt;div&gt;&lt;br&gt;&lt;/div&gt;&lt;div&gt;&lt;br&gt;&lt;/div&gt;" style="html=1;whiteSpace=wrap;" vertex="1" parent="tpQfdJ8z_NB4iug-ilj6-3">
          <mxGeometry x="1030" y="370.5" width="140" height="124" as="geometry" />
        </mxCell>
        <mxCell id="tpQfdJ8z_NB4iug-ilj6-38" value="APP" style="shape=module;align=left;spacingLeft=20;align=center;verticalAlign=top;whiteSpace=wrap;html=1;" vertex="1" parent="tpQfdJ8z_NB4iug-ilj6-3">
          <mxGeometry x="1050" y="431" width="100" height="50" as="geometry" />
        </mxCell>
        <mxCell id="tpQfdJ8z_NB4iug-ilj6-39" value="" style="shape=image;html=1;verticalAlign=top;verticalLabelPosition=bottom;labelBackgroundColor=#ffffff;imageAspect=0;aspect=fixed;image=https://cdn1.iconfinder.com/data/icons/unicons-line-vol-3/24/docker-128.png" vertex="1" parent="tpQfdJ8z_NB4iug-ilj6-3">
          <mxGeometry x="1000" y="344.5" width="56" height="56" as="geometry" />
        </mxCell>
        <mxCell id="tpQfdJ8z_NB4iug-ilj6-40" value="&lt;div&gt;Servicio de generaci칩n de reportes&lt;/div&gt;&lt;div&gt;&lt;br&gt;&lt;/div&gt;&lt;div&gt;&lt;br&gt;&lt;/div&gt;&lt;div&gt;&lt;br&gt;&lt;/div&gt;&lt;div&gt;&lt;br&gt;&lt;/div&gt;&lt;div&gt;&lt;br&gt;&lt;/div&gt;" style="html=1;whiteSpace=wrap;" vertex="1" parent="tpQfdJ8z_NB4iug-ilj6-3">
          <mxGeometry x="1227" y="370.5" width="140" height="124" as="geometry" />
        </mxCell>
        <mxCell id="tpQfdJ8z_NB4iug-ilj6-41" value="APP" style="shape=module;align=left;spacingLeft=20;align=center;verticalAlign=top;whiteSpace=wrap;html=1;" vertex="1" parent="tpQfdJ8z_NB4iug-ilj6-3">
          <mxGeometry x="1247" y="431" width="100" height="50" as="geometry" />
        </mxCell>
        <mxCell id="tpQfdJ8z_NB4iug-ilj6-42" value="" style="shape=image;html=1;verticalAlign=top;verticalLabelPosition=bottom;labelBackgroundColor=#ffffff;imageAspect=0;aspect=fixed;image=https://cdn1.iconfinder.com/data/icons/unicons-line-vol-3/24/docker-128.png" vertex="1" parent="tpQfdJ8z_NB4iug-ilj6-3">
          <mxGeometry x="1200" y="340" width="56" height="56" as="geometry" />
        </mxCell>
        <mxCell id="tpQfdJ8z_NB4iug-ilj6-43" value="" style="shape=image;html=1;verticalAlign=top;verticalLabelPosition=bottom;labelBackgroundColor=#ffffff;imageAspect=0;aspect=fixed;image=https://cdn1.iconfinder.com/data/icons/unicons-line-vol-3/24/docker-128.png" vertex="1" parent="tpQfdJ8z_NB4iug-ilj6-3">
          <mxGeometry x="560" y="346.5" width="56" height="56" as="geometry" />
        </mxCell>
        <mxCell id="tpQfdJ8z_NB4iug-ilj6-44" style="edgeStyle=orthogonalEdgeStyle;rounded=0;orthogonalLoop=1;jettySize=auto;html=1;exitX=0.5;exitY=1;exitDx=0;exitDy=0;entryX=0.5;entryY=0;entryDx=0;entryDy=0;" edge="1" parent="tpQfdJ8z_NB4iug-ilj6-3" source="tpQfdJ8z_NB4iug-ilj6-46" target="tpQfdJ8z_NB4iug-ilj6-34">
          <mxGeometry relative="1" as="geometry" />
        </mxCell>
        <mxCell id="tpQfdJ8z_NB4iug-ilj6-45" style="edgeStyle=orthogonalEdgeStyle;rounded=0;orthogonalLoop=1;jettySize=auto;html=1;entryX=0.5;entryY=0;entryDx=0;entryDy=0;" edge="1" parent="tpQfdJ8z_NB4iug-ilj6-3" source="tpQfdJ8z_NB4iug-ilj6-46" target="tpQfdJ8z_NB4iug-ilj6-40">
          <mxGeometry relative="1" as="geometry" />
        </mxCell>
        <mxCell id="tpQfdJ8z_NB4iug-ilj6-46" value="Servicio de&lt;div&gt;notificaciones&lt;div&gt;&lt;br&gt;&lt;/div&gt;&lt;div&gt;&lt;br&gt;&lt;/div&gt;&lt;div&gt;&lt;br&gt;&lt;/div&gt;&lt;div&gt;&lt;br&gt;&lt;/div&gt;&lt;div&gt;&lt;br&gt;&lt;/div&gt;&lt;/div&gt;" style="html=1;whiteSpace=wrap;" vertex="1" parent="tpQfdJ8z_NB4iug-ilj6-3">
          <mxGeometry x="590" y="74" width="140" height="124" as="geometry" />
        </mxCell>
        <mxCell id="tpQfdJ8z_NB4iug-ilj6-47" value="APP" style="shape=module;align=left;spacingLeft=20;align=center;verticalAlign=top;whiteSpace=wrap;html=1;" vertex="1" parent="tpQfdJ8z_NB4iug-ilj6-3">
          <mxGeometry x="610" y="134.5" width="100" height="50" as="geometry" />
        </mxCell>
        <mxCell id="tpQfdJ8z_NB4iug-ilj6-48" value="" style="shape=image;html=1;verticalAlign=top;verticalLabelPosition=bottom;labelBackgroundColor=#ffffff;imageAspect=0;aspect=fixed;image=https://cdn1.iconfinder.com/data/icons/unicons-line-vol-3/24/docker-128.png" vertex="1" parent="tpQfdJ8z_NB4iug-ilj6-3">
          <mxGeometry x="560" y="50" width="56" height="56" as="geometry" />
        </mxCell>
        <mxCell id="tpQfdJ8z_NB4iug-ilj6-186" value="" style="group" vertex="1" connectable="0" parent="1">
          <mxGeometry x="160" y="1160" width="1280" height="1620" as="geometry" />
        </mxCell>
        <mxCell id="tpQfdJ8z_NB4iug-ilj6-50" value="" style="rounded=0;whiteSpace=wrap;html=1;strokeWidth=0;" vertex="1" parent="tpQfdJ8z_NB4iug-ilj6-186">
          <mxGeometry width="1280" height="1620" as="geometry" />
        </mxCell>
        <mxCell id="tpQfdJ8z_NB4iug-ilj6-52" value="Usuario" style="shape=umlActor;verticalLabelPosition=bottom;verticalAlign=top;html=1;outlineConnect=0;" vertex="1" parent="tpQfdJ8z_NB4iug-ilj6-186">
          <mxGeometry x="110" y="1007.5181818181813" width="30" height="57.27272727272727" as="geometry" />
        </mxCell>
        <mxCell id="tpQfdJ8z_NB4iug-ilj6-53" value="Dispositivo" style="verticalAlign=top;align=left;spacingTop=8;spacingLeft=2;spacingRight=12;shape=cube;size=10;direction=south;fontStyle=4;html=1;whiteSpace=wrap;" vertex="1" parent="tpQfdJ8z_NB4iug-ilj6-186">
          <mxGeometry x="40" y="763.1545454545455" width="180" height="114.54545454545455" as="geometry" />
        </mxCell>
        <mxCell id="tpQfdJ8z_NB4iug-ilj6-54" value="Ordenador" style="shape=module;align=left;spacingLeft=20;align=center;verticalAlign=top;whiteSpace=wrap;html=1;" vertex="1" parent="tpQfdJ8z_NB4iug-ilj6-186">
          <mxGeometry x="80" y="806.109090909091" width="100" height="47.72727272727273" as="geometry" />
        </mxCell>
        <mxCell id="tpQfdJ8z_NB4iug-ilj6-58" value="Servicio Balanceador" style="verticalAlign=top;align=left;spacingTop=8;spacingLeft=2;spacingRight=12;shape=cube;size=10;direction=south;fontStyle=4;html=1;whiteSpace=wrap;" vertex="1" parent="tpQfdJ8z_NB4iug-ilj6-186">
          <mxGeometry x="330" y="754.1545454545455" width="180" height="114.54545454545455" as="geometry" />
        </mxCell>
        <mxCell id="tpQfdJ8z_NB4iug-ilj6-59" value="NGINX" style="shape=module;align=left;spacingLeft=20;align=center;verticalAlign=top;whiteSpace=wrap;html=1;" vertex="1" parent="tpQfdJ8z_NB4iug-ilj6-186">
          <mxGeometry x="370" y="797.109090909091" width="100" height="47.72727272727273" as="geometry" />
        </mxCell>
        <mxCell id="tpQfdJ8z_NB4iug-ilj6-96" style="edgeStyle=orthogonalEdgeStyle;rounded=0;orthogonalLoop=1;jettySize=auto;html=1;entryX=0;entryY=0;entryDx=120;entryDy=95;entryPerimeter=0;" edge="1" parent="tpQfdJ8z_NB4iug-ilj6-186" source="tpQfdJ8z_NB4iug-ilj6-52" target="tpQfdJ8z_NB4iug-ilj6-53">
          <mxGeometry relative="1" as="geometry" />
        </mxCell>
        <mxCell id="tpQfdJ8z_NB4iug-ilj6-114" value="HTTP&lt;div&gt;HTTPS&lt;/div&gt;" style="edgeStyle=orthogonalEdgeStyle;rounded=0;orthogonalLoop=1;jettySize=auto;html=1;exitX=0;exitY=0;exitDx=52.27272727272727;exitDy=0;exitPerimeter=0;entryX=0;entryY=0;entryDx=62.27272727272727;entryDy=180;entryPerimeter=0;" edge="1" parent="tpQfdJ8z_NB4iug-ilj6-186" source="tpQfdJ8z_NB4iug-ilj6-53" target="tpQfdJ8z_NB4iug-ilj6-58">
          <mxGeometry relative="1" as="geometry" />
        </mxCell>
        <mxCell id="tpQfdJ8z_NB4iug-ilj6-115" value="&lt;div&gt;Servicio Procesamiento Planillas&lt;/div&gt;" style="verticalAlign=top;align=left;spacingTop=8;spacingLeft=2;spacingRight=12;shape=cube;size=10;direction=south;fontStyle=4;html=1;whiteSpace=wrap;" vertex="1" parent="tpQfdJ8z_NB4iug-ilj6-186">
          <mxGeometry x="640" y="41.31818181818198" width="240" height="139.36363636363637" as="geometry" />
        </mxCell>
        <mxCell id="tpQfdJ8z_NB4iug-ilj6-116" value="Docker" style="shape=module;align=left;spacingLeft=20;align=center;verticalAlign=top;whiteSpace=wrap;html=1;" vertex="1" parent="tpQfdJ8z_NB4iug-ilj6-186">
          <mxGeometry x="650" y="80.4545454545455" width="200" height="85.9090909090909" as="geometry" />
        </mxCell>
        <mxCell id="tpQfdJ8z_NB4iug-ilj6-117" value="APP" style="shape=module;align=left;spacingLeft=20;align=center;verticalAlign=top;whiteSpace=wrap;html=1;" vertex="1" parent="tpQfdJ8z_NB4iug-ilj6-186">
          <mxGeometry x="685" y="109.09090909090901" width="155" height="47.72727272727273" as="geometry" />
        </mxCell>
        <mxCell id="tpQfdJ8z_NB4iug-ilj6-118" value="Servicio DB Procesamiento Plantillas" style="verticalAlign=top;align=left;spacingTop=8;spacingLeft=2;spacingRight=12;shape=cube;size=10;direction=south;fontStyle=4;html=1;whiteSpace=wrap;" vertex="1" parent="tpQfdJ8z_NB4iug-ilj6-186">
          <mxGeometry x="975" y="30" width="240" height="139.36" as="geometry" />
        </mxCell>
        <mxCell id="tpQfdJ8z_NB4iug-ilj6-119" value="Docker" style="shape=module;align=left;spacingLeft=20;align=center;verticalAlign=top;whiteSpace=wrap;html=1;" vertex="1" parent="tpQfdJ8z_NB4iug-ilj6-186">
          <mxGeometry x="985" y="69.13363636363647" width="200" height="85.9090909090909" as="geometry" />
        </mxCell>
        <mxCell id="tpQfdJ8z_NB4iug-ilj6-120" value="MySQL" style="shape=module;align=left;spacingLeft=20;align=center;verticalAlign=top;whiteSpace=wrap;html=1;" vertex="1" parent="tpQfdJ8z_NB4iug-ilj6-186">
          <mxGeometry x="1020" y="97.76999999999998" width="155" height="47.72727272727273" as="geometry" />
        </mxCell>
        <mxCell id="tpQfdJ8z_NB4iug-ilj6-121" value="TCP/IP" style="edgeStyle=orthogonalEdgeStyle;rounded=0;orthogonalLoop=1;jettySize=auto;html=1;exitX=0;exitY=0;exitDx=64.68181818181819;exitDy=0;exitPerimeter=0;entryX=0;entryY=0;entryDx=74.68;entryDy=240;entryPerimeter=0;" edge="1" parent="tpQfdJ8z_NB4iug-ilj6-186" source="tpQfdJ8z_NB4iug-ilj6-115" target="tpQfdJ8z_NB4iug-ilj6-118">
          <mxGeometry relative="1" as="geometry" />
        </mxCell>
        <mxCell id="tpQfdJ8z_NB4iug-ilj6-122" value="&lt;div&gt;Servivio de Control de Versiones&lt;/div&gt;" style="verticalAlign=top;align=left;spacingTop=8;spacingLeft=2;spacingRight=12;shape=cube;size=10;direction=south;fontStyle=4;html=1;whiteSpace=wrap;" vertex="1" parent="tpQfdJ8z_NB4iug-ilj6-186">
          <mxGeometry x="640" y="236.97818181818184" width="240" height="139.36363636363637" as="geometry" />
        </mxCell>
        <mxCell id="tpQfdJ8z_NB4iug-ilj6-123" value="Docker" style="shape=module;align=left;spacingLeft=20;align=center;verticalAlign=top;whiteSpace=wrap;html=1;" vertex="1" parent="tpQfdJ8z_NB4iug-ilj6-186">
          <mxGeometry x="650" y="276.11454545454535" width="200" height="85.9090909090909" as="geometry" />
        </mxCell>
        <mxCell id="tpQfdJ8z_NB4iug-ilj6-124" value="APP" style="shape=module;align=left;spacingLeft=20;align=center;verticalAlign=top;whiteSpace=wrap;html=1;" vertex="1" parent="tpQfdJ8z_NB4iug-ilj6-186">
          <mxGeometry x="685" y="304.75090909090886" width="155" height="47.72727272727273" as="geometry" />
        </mxCell>
        <mxCell id="tpQfdJ8z_NB4iug-ilj6-125" value="Servicio DB Control Versiones" style="verticalAlign=top;align=left;spacingTop=8;spacingLeft=2;spacingRight=12;shape=cube;size=10;direction=south;fontStyle=4;html=1;whiteSpace=wrap;" vertex="1" parent="tpQfdJ8z_NB4iug-ilj6-186">
          <mxGeometry x="975" y="225.65999999999985" width="240" height="139.36" as="geometry" />
        </mxCell>
        <mxCell id="tpQfdJ8z_NB4iug-ilj6-126" value="Docker" style="shape=module;align=left;spacingLeft=20;align=center;verticalAlign=top;whiteSpace=wrap;html=1;" vertex="1" parent="tpQfdJ8z_NB4iug-ilj6-186">
          <mxGeometry x="985" y="264.7936363636363" width="200" height="85.9090909090909" as="geometry" />
        </mxCell>
        <mxCell id="tpQfdJ8z_NB4iug-ilj6-127" value="MySQL" style="shape=module;align=left;spacingLeft=20;align=center;verticalAlign=top;whiteSpace=wrap;html=1;" vertex="1" parent="tpQfdJ8z_NB4iug-ilj6-186">
          <mxGeometry x="1020" y="293.42999999999984" width="155" height="47.72727272727273" as="geometry" />
        </mxCell>
        <mxCell id="tpQfdJ8z_NB4iug-ilj6-128" value="TCP/IP" style="edgeStyle=orthogonalEdgeStyle;rounded=0;orthogonalLoop=1;jettySize=auto;html=1;exitX=0;exitY=0;exitDx=64.68181818181819;exitDy=0;exitPerimeter=0;entryX=0;entryY=0;entryDx=74.68;entryDy=240;entryPerimeter=0;" edge="1" parent="tpQfdJ8z_NB4iug-ilj6-186" source="tpQfdJ8z_NB4iug-ilj6-122" target="tpQfdJ8z_NB4iug-ilj6-125">
          <mxGeometry relative="1" as="geometry" />
        </mxCell>
        <mxCell id="tpQfdJ8z_NB4iug-ilj6-129" value="&lt;div&gt;Servicio Ingraci칩n Bancaria&lt;/div&gt;" style="verticalAlign=top;align=left;spacingTop=8;spacingLeft=2;spacingRight=12;shape=cube;size=10;direction=south;fontStyle=4;html=1;whiteSpace=wrap;" vertex="1" parent="tpQfdJ8z_NB4iug-ilj6-186">
          <mxGeometry x="640" y="436.9781818181814" width="240" height="139.36363636363637" as="geometry" />
        </mxCell>
        <mxCell id="tpQfdJ8z_NB4iug-ilj6-130" value="Docker" style="shape=module;align=left;spacingLeft=20;align=center;verticalAlign=top;whiteSpace=wrap;html=1;" vertex="1" parent="tpQfdJ8z_NB4iug-ilj6-186">
          <mxGeometry x="650" y="476.11454545454535" width="200" height="85.9090909090909" as="geometry" />
        </mxCell>
        <mxCell id="tpQfdJ8z_NB4iug-ilj6-131" value="APP" style="shape=module;align=left;spacingLeft=20;align=center;verticalAlign=top;whiteSpace=wrap;html=1;" vertex="1" parent="tpQfdJ8z_NB4iug-ilj6-186">
          <mxGeometry x="685" y="504.75090909090886" width="155" height="47.72727272727273" as="geometry" />
        </mxCell>
        <mxCell id="tpQfdJ8z_NB4iug-ilj6-132" value="Servicio DB Transacciones" style="verticalAlign=top;align=left;spacingTop=8;spacingLeft=2;spacingRight=12;shape=cube;size=10;direction=south;fontStyle=4;html=1;whiteSpace=wrap;" vertex="1" parent="tpQfdJ8z_NB4iug-ilj6-186">
          <mxGeometry x="975" y="425.65999999999985" width="240" height="139.36" as="geometry" />
        </mxCell>
        <mxCell id="tpQfdJ8z_NB4iug-ilj6-133" value="Docker" style="shape=module;align=left;spacingLeft=20;align=center;verticalAlign=top;whiteSpace=wrap;html=1;" vertex="1" parent="tpQfdJ8z_NB4iug-ilj6-186">
          <mxGeometry x="985" y="464.7936363636363" width="200" height="85.9090909090909" as="geometry" />
        </mxCell>
        <mxCell id="tpQfdJ8z_NB4iug-ilj6-134" value="MySQL" style="shape=module;align=left;spacingLeft=20;align=center;verticalAlign=top;whiteSpace=wrap;html=1;" vertex="1" parent="tpQfdJ8z_NB4iug-ilj6-186">
          <mxGeometry x="1020" y="493.42999999999984" width="155" height="47.72727272727273" as="geometry" />
        </mxCell>
        <mxCell id="tpQfdJ8z_NB4iug-ilj6-135" value="TCP/IP" style="edgeStyle=orthogonalEdgeStyle;rounded=0;orthogonalLoop=1;jettySize=auto;html=1;exitX=0;exitY=0;exitDx=64.68181818181819;exitDy=0;exitPerimeter=0;entryX=0;entryY=0;entryDx=74.68;entryDy=240;entryPerimeter=0;" edge="1" parent="tpQfdJ8z_NB4iug-ilj6-186" source="tpQfdJ8z_NB4iug-ilj6-129" target="tpQfdJ8z_NB4iug-ilj6-132">
          <mxGeometry relative="1" as="geometry" />
        </mxCell>
        <mxCell id="tpQfdJ8z_NB4iug-ilj6-136" value="&lt;div&gt;Servicio de Notificaciones&lt;/div&gt;" style="verticalAlign=top;align=left;spacingTop=8;spacingLeft=2;spacingRight=12;shape=cube;size=10;direction=south;fontStyle=4;html=1;whiteSpace=wrap;" vertex="1" parent="tpQfdJ8z_NB4iug-ilj6-186">
          <mxGeometry x="640" y="636.9781818181818" width="240" height="139.36363636363637" as="geometry" />
        </mxCell>
        <mxCell id="tpQfdJ8z_NB4iug-ilj6-137" value="Docker" style="shape=module;align=left;spacingLeft=20;align=center;verticalAlign=top;whiteSpace=wrap;html=1;" vertex="1" parent="tpQfdJ8z_NB4iug-ilj6-186">
          <mxGeometry x="650" y="676.1145454545454" width="200" height="85.9090909090909" as="geometry" />
        </mxCell>
        <mxCell id="tpQfdJ8z_NB4iug-ilj6-138" value="APP" style="shape=module;align=left;spacingLeft=20;align=center;verticalAlign=top;whiteSpace=wrap;html=1;" vertex="1" parent="tpQfdJ8z_NB4iug-ilj6-186">
          <mxGeometry x="685" y="704.7509090909089" width="155" height="47.72727272727273" as="geometry" />
        </mxCell>
        <mxCell id="tpQfdJ8z_NB4iug-ilj6-139" value="Almacenamiento Transacciones" style="verticalAlign=top;align=left;spacingTop=8;spacingLeft=2;spacingRight=12;shape=cube;size=10;direction=south;fontStyle=4;html=1;whiteSpace=wrap;" vertex="1" parent="tpQfdJ8z_NB4iug-ilj6-186">
          <mxGeometry x="975" y="625.6599999999999" width="240" height="139.36" as="geometry" />
        </mxCell>
        <mxCell id="tpQfdJ8z_NB4iug-ilj6-140" value="Docker" style="shape=module;align=left;spacingLeft=20;align=center;verticalAlign=top;whiteSpace=wrap;html=1;" vertex="1" parent="tpQfdJ8z_NB4iug-ilj6-186">
          <mxGeometry x="985" y="664.7936363636363" width="200" height="85.9090909090909" as="geometry" />
        </mxCell>
        <mxCell id="tpQfdJ8z_NB4iug-ilj6-141" value="MySQL" style="shape=module;align=left;spacingLeft=20;align=center;verticalAlign=top;whiteSpace=wrap;html=1;" vertex="1" parent="tpQfdJ8z_NB4iug-ilj6-186">
          <mxGeometry x="1020" y="693.4299999999998" width="155" height="47.72727272727273" as="geometry" />
        </mxCell>
        <mxCell id="tpQfdJ8z_NB4iug-ilj6-142" value="TCP/IP" style="edgeStyle=orthogonalEdgeStyle;rounded=0;orthogonalLoop=1;jettySize=auto;html=1;exitX=0;exitY=0;exitDx=64.68181818181819;exitDy=0;exitPerimeter=0;entryX=0;entryY=0;entryDx=74.68;entryDy=240;entryPerimeter=0;" edge="1" parent="tpQfdJ8z_NB4iug-ilj6-186" source="tpQfdJ8z_NB4iug-ilj6-136" target="tpQfdJ8z_NB4iug-ilj6-139">
          <mxGeometry relative="1" as="geometry" />
        </mxCell>
        <mxCell id="tpQfdJ8z_NB4iug-ilj6-143" value="&lt;div&gt;Servicio de Historial y Auditoria&lt;/div&gt;" style="verticalAlign=top;align=left;spacingTop=8;spacingLeft=2;spacingRight=12;shape=cube;size=10;direction=south;fontStyle=4;html=1;whiteSpace=wrap;" vertex="1" parent="tpQfdJ8z_NB4iug-ilj6-186">
          <mxGeometry x="640" y="836.9781818181818" width="240" height="139.36363636363637" as="geometry" />
        </mxCell>
        <mxCell id="tpQfdJ8z_NB4iug-ilj6-144" value="Docker" style="shape=module;align=left;spacingLeft=20;align=center;verticalAlign=top;whiteSpace=wrap;html=1;" vertex="1" parent="tpQfdJ8z_NB4iug-ilj6-186">
          <mxGeometry x="650" y="876.1145454545451" width="200" height="85.9090909090909" as="geometry" />
        </mxCell>
        <mxCell id="tpQfdJ8z_NB4iug-ilj6-145" value="APP" style="shape=module;align=left;spacingLeft=20;align=center;verticalAlign=top;whiteSpace=wrap;html=1;" vertex="1" parent="tpQfdJ8z_NB4iug-ilj6-186">
          <mxGeometry x="685" y="904.7509090909084" width="155" height="47.72727272727273" as="geometry" />
        </mxCell>
        <mxCell id="tpQfdJ8z_NB4iug-ilj6-146" value="Servicio DB Historial y Auditoria" style="verticalAlign=top;align=left;spacingTop=8;spacingLeft=2;spacingRight=12;shape=cube;size=10;direction=south;fontStyle=4;html=1;whiteSpace=wrap;" vertex="1" parent="tpQfdJ8z_NB4iug-ilj6-186">
          <mxGeometry x="975" y="825.6599999999999" width="240" height="139.36" as="geometry" />
        </mxCell>
        <mxCell id="tpQfdJ8z_NB4iug-ilj6-147" value="Docker" style="shape=module;align=left;spacingLeft=20;align=center;verticalAlign=top;whiteSpace=wrap;html=1;" vertex="1" parent="tpQfdJ8z_NB4iug-ilj6-186">
          <mxGeometry x="985" y="864.7936363636363" width="200" height="85.9090909090909" as="geometry" />
        </mxCell>
        <mxCell id="tpQfdJ8z_NB4iug-ilj6-148" value="MySQL" style="shape=module;align=left;spacingLeft=20;align=center;verticalAlign=top;whiteSpace=wrap;html=1;" vertex="1" parent="tpQfdJ8z_NB4iug-ilj6-186">
          <mxGeometry x="1020" y="893.4299999999994" width="155" height="47.72727272727273" as="geometry" />
        </mxCell>
        <mxCell id="tpQfdJ8z_NB4iug-ilj6-149" value="TCP/IP" style="edgeStyle=orthogonalEdgeStyle;rounded=0;orthogonalLoop=1;jettySize=auto;html=1;exitX=0;exitY=0;exitDx=64.68181818181819;exitDy=0;exitPerimeter=0;entryX=0;entryY=0;entryDx=74.68;entryDy=240;entryPerimeter=0;" edge="1" parent="tpQfdJ8z_NB4iug-ilj6-186" source="tpQfdJ8z_NB4iug-ilj6-143" target="tpQfdJ8z_NB4iug-ilj6-146">
          <mxGeometry relative="1" as="geometry" />
        </mxCell>
        <mxCell id="tpQfdJ8z_NB4iug-ilj6-150" value="&lt;div&gt;Servicio Generaci칩n de Reportes&lt;/div&gt;" style="verticalAlign=top;align=left;spacingTop=8;spacingLeft=2;spacingRight=12;shape=cube;size=10;direction=south;fontStyle=4;html=1;whiteSpace=wrap;" vertex="1" parent="tpQfdJ8z_NB4iug-ilj6-186">
          <mxGeometry x="640" y="1036.9781818181814" width="240" height="139.36363636363637" as="geometry" />
        </mxCell>
        <mxCell id="tpQfdJ8z_NB4iug-ilj6-151" value="Docker" style="shape=module;align=left;spacingLeft=20;align=center;verticalAlign=top;whiteSpace=wrap;html=1;" vertex="1" parent="tpQfdJ8z_NB4iug-ilj6-186">
          <mxGeometry x="650" y="1076.114545454545" width="200" height="85.9090909090909" as="geometry" />
        </mxCell>
        <mxCell id="tpQfdJ8z_NB4iug-ilj6-152" value="APP" style="shape=module;align=left;spacingLeft=20;align=center;verticalAlign=top;whiteSpace=wrap;html=1;" vertex="1" parent="tpQfdJ8z_NB4iug-ilj6-186">
          <mxGeometry x="685" y="1104.7509090909084" width="155" height="47.72727272727273" as="geometry" />
        </mxCell>
        <mxCell id="tpQfdJ8z_NB4iug-ilj6-153" value="Servicio DB Reportes" style="verticalAlign=top;align=left;spacingTop=8;spacingLeft=2;spacingRight=12;shape=cube;size=10;direction=south;fontStyle=4;html=1;whiteSpace=wrap;" vertex="1" parent="tpQfdJ8z_NB4iug-ilj6-186">
          <mxGeometry x="975" y="1025.6599999999994" width="240" height="139.36" as="geometry" />
        </mxCell>
        <mxCell id="tpQfdJ8z_NB4iug-ilj6-154" value="Docker" style="shape=module;align=left;spacingLeft=20;align=center;verticalAlign=top;whiteSpace=wrap;html=1;" vertex="1" parent="tpQfdJ8z_NB4iug-ilj6-186">
          <mxGeometry x="985" y="1064.7936363636359" width="200" height="85.9090909090909" as="geometry" />
        </mxCell>
        <mxCell id="tpQfdJ8z_NB4iug-ilj6-155" value="MySQL" style="shape=module;align=left;spacingLeft=20;align=center;verticalAlign=top;whiteSpace=wrap;html=1;" vertex="1" parent="tpQfdJ8z_NB4iug-ilj6-186">
          <mxGeometry x="1020" y="1093.4299999999994" width="155" height="47.72727272727273" as="geometry" />
        </mxCell>
        <mxCell id="tpQfdJ8z_NB4iug-ilj6-156" value="TCP/IP" style="edgeStyle=orthogonalEdgeStyle;rounded=0;orthogonalLoop=1;jettySize=auto;html=1;exitX=0;exitY=0;exitDx=64.68181818181819;exitDy=0;exitPerimeter=0;entryX=0;entryY=0;entryDx=74.68;entryDy=240;entryPerimeter=0;" edge="1" parent="tpQfdJ8z_NB4iug-ilj6-186" source="tpQfdJ8z_NB4iug-ilj6-150" target="tpQfdJ8z_NB4iug-ilj6-153">
          <mxGeometry relative="1" as="geometry" />
        </mxCell>
        <mxCell id="tpQfdJ8z_NB4iug-ilj6-160" value="&lt;div&gt;Servicio de Almacenamiento&lt;/div&gt;" style="verticalAlign=top;align=left;spacingTop=8;spacingLeft=2;spacingRight=12;shape=cube;size=10;direction=south;fontStyle=4;html=1;whiteSpace=wrap;" vertex="1" parent="tpQfdJ8z_NB4iug-ilj6-186">
          <mxGeometry x="640" y="1236.9781818181814" width="240" height="139.36363636363637" as="geometry" />
        </mxCell>
        <mxCell id="tpQfdJ8z_NB4iug-ilj6-161" value="Docker" style="shape=module;align=left;spacingLeft=20;align=center;verticalAlign=top;whiteSpace=wrap;html=1;" vertex="1" parent="tpQfdJ8z_NB4iug-ilj6-186">
          <mxGeometry x="650" y="1276.114545454545" width="200" height="85.9090909090909" as="geometry" />
        </mxCell>
        <mxCell id="tpQfdJ8z_NB4iug-ilj6-162" value="APP" style="shape=module;align=left;spacingLeft=20;align=center;verticalAlign=top;whiteSpace=wrap;html=1;" vertex="1" parent="tpQfdJ8z_NB4iug-ilj6-186">
          <mxGeometry x="685" y="1304.7509090909084" width="155" height="47.72727272727273" as="geometry" />
        </mxCell>
        <mxCell id="tpQfdJ8z_NB4iug-ilj6-163" value="Servicio DB Almacenamiento" style="verticalAlign=top;align=left;spacingTop=8;spacingLeft=2;spacingRight=12;shape=cube;size=10;direction=south;fontStyle=4;html=1;whiteSpace=wrap;" vertex="1" parent="tpQfdJ8z_NB4iug-ilj6-186">
          <mxGeometry x="975" y="1225.6599999999994" width="240" height="139.36" as="geometry" />
        </mxCell>
        <mxCell id="tpQfdJ8z_NB4iug-ilj6-164" value="Docker" style="shape=module;align=left;spacingLeft=20;align=center;verticalAlign=top;whiteSpace=wrap;html=1;" vertex="1" parent="tpQfdJ8z_NB4iug-ilj6-186">
          <mxGeometry x="985" y="1264.7936363636359" width="200" height="85.9090909090909" as="geometry" />
        </mxCell>
        <mxCell id="tpQfdJ8z_NB4iug-ilj6-165" value="MySQL" style="shape=module;align=left;spacingLeft=20;align=center;verticalAlign=top;whiteSpace=wrap;html=1;" vertex="1" parent="tpQfdJ8z_NB4iug-ilj6-186">
          <mxGeometry x="1020" y="1293.4299999999994" width="155" height="47.72727272727273" as="geometry" />
        </mxCell>
        <mxCell id="tpQfdJ8z_NB4iug-ilj6-166" value="TCP/IP" style="edgeStyle=orthogonalEdgeStyle;rounded=0;orthogonalLoop=1;jettySize=auto;html=1;exitX=0;exitY=0;exitDx=64.68181818181819;exitDy=0;exitPerimeter=0;entryX=0;entryY=0;entryDx=74.68;entryDy=240;entryPerimeter=0;" edge="1" parent="tpQfdJ8z_NB4iug-ilj6-186" source="tpQfdJ8z_NB4iug-ilj6-160" target="tpQfdJ8z_NB4iug-ilj6-163">
          <mxGeometry relative="1" as="geometry" />
        </mxCell>
        <mxCell id="tpQfdJ8z_NB4iug-ilj6-172" value="&lt;div&gt;Servicio de Autenticaci칩n/Autorizaci칩n&lt;/div&gt;" style="verticalAlign=top;align=left;spacingTop=8;spacingLeft=2;spacingRight=12;shape=cube;size=10;direction=south;fontStyle=4;html=1;whiteSpace=wrap;" vertex="1" parent="tpQfdJ8z_NB4iug-ilj6-186">
          <mxGeometry x="640" y="1438.3181818181815" width="240" height="139.36363636363637" as="geometry" />
        </mxCell>
        <mxCell id="tpQfdJ8z_NB4iug-ilj6-173" value="Docker" style="shape=module;align=left;spacingLeft=20;align=center;verticalAlign=top;whiteSpace=wrap;html=1;" vertex="1" parent="tpQfdJ8z_NB4iug-ilj6-186">
          <mxGeometry x="650" y="1477.454545454545" width="200" height="85.9090909090909" as="geometry" />
        </mxCell>
        <mxCell id="tpQfdJ8z_NB4iug-ilj6-174" value="APP" style="shape=module;align=left;spacingLeft=20;align=center;verticalAlign=top;whiteSpace=wrap;html=1;" vertex="1" parent="tpQfdJ8z_NB4iug-ilj6-186">
          <mxGeometry x="685" y="1506.0909090909086" width="155" height="47.72727272727273" as="geometry" />
        </mxCell>
        <mxCell id="tpQfdJ8z_NB4iug-ilj6-175" value="Servicio DB Usuarios" style="verticalAlign=top;align=left;spacingTop=8;spacingLeft=2;spacingRight=12;shape=cube;size=10;direction=south;fontStyle=4;html=1;whiteSpace=wrap;" vertex="1" parent="tpQfdJ8z_NB4iug-ilj6-186">
          <mxGeometry x="975" y="1426.9999999999995" width="240" height="139.36" as="geometry" />
        </mxCell>
        <mxCell id="tpQfdJ8z_NB4iug-ilj6-176" value="Docker" style="shape=module;align=left;spacingLeft=20;align=center;verticalAlign=top;whiteSpace=wrap;html=1;" vertex="1" parent="tpQfdJ8z_NB4iug-ilj6-186">
          <mxGeometry x="985" y="1466.133636363636" width="200" height="85.9090909090909" as="geometry" />
        </mxCell>
        <mxCell id="tpQfdJ8z_NB4iug-ilj6-177" value="MySQL" style="shape=module;align=left;spacingLeft=20;align=center;verticalAlign=top;whiteSpace=wrap;html=1;" vertex="1" parent="tpQfdJ8z_NB4iug-ilj6-186">
          <mxGeometry x="1020" y="1494.7699999999995" width="155" height="47.72727272727273" as="geometry" />
        </mxCell>
        <mxCell id="tpQfdJ8z_NB4iug-ilj6-178" value="TCP/IP" style="edgeStyle=orthogonalEdgeStyle;rounded=0;orthogonalLoop=1;jettySize=auto;html=1;exitX=0;exitY=0;exitDx=64.68181818181819;exitDy=0;exitPerimeter=0;entryX=0;entryY=0;entryDx=74.68;entryDy=240;entryPerimeter=0;" edge="1" parent="tpQfdJ8z_NB4iug-ilj6-186" source="tpQfdJ8z_NB4iug-ilj6-172" target="tpQfdJ8z_NB4iug-ilj6-175">
          <mxGeometry relative="1" as="geometry" />
        </mxCell>
        <mxCell id="tpQfdJ8z_NB4iug-ilj6-179" style="edgeStyle=orthogonalEdgeStyle;rounded=0;orthogonalLoop=1;jettySize=auto;html=1;entryX=0;entryY=0;entryDx=74.68181818181819;entryDy=239.99999999999997;entryPerimeter=0;" edge="1" parent="tpQfdJ8z_NB4iug-ilj6-186" source="tpQfdJ8z_NB4iug-ilj6-58" target="tpQfdJ8z_NB4iug-ilj6-115">
          <mxGeometry relative="1" as="geometry" />
        </mxCell>
        <mxCell id="tpQfdJ8z_NB4iug-ilj6-180" style="edgeStyle=orthogonalEdgeStyle;rounded=0;orthogonalLoop=1;jettySize=auto;html=1;entryX=0;entryY=0;entryDx=74.68181818181819;entryDy=239.99999999999997;entryPerimeter=0;" edge="1" parent="tpQfdJ8z_NB4iug-ilj6-186" source="tpQfdJ8z_NB4iug-ilj6-58" target="tpQfdJ8z_NB4iug-ilj6-122">
          <mxGeometry relative="1" as="geometry" />
        </mxCell>
        <mxCell id="tpQfdJ8z_NB4iug-ilj6-181" style="edgeStyle=orthogonalEdgeStyle;rounded=0;orthogonalLoop=1;jettySize=auto;html=1;entryX=0;entryY=0;entryDx=74.68181818181819;entryDy=239.99999999999997;entryPerimeter=0;" edge="1" parent="tpQfdJ8z_NB4iug-ilj6-186" source="tpQfdJ8z_NB4iug-ilj6-58" target="tpQfdJ8z_NB4iug-ilj6-136">
          <mxGeometry relative="1" as="geometry" />
        </mxCell>
        <mxCell id="tpQfdJ8z_NB4iug-ilj6-182" style="edgeStyle=orthogonalEdgeStyle;rounded=0;orthogonalLoop=1;jettySize=auto;html=1;entryX=0;entryY=0;entryDx=74.68181818181819;entryDy=239.99999999999997;entryPerimeter=0;" edge="1" parent="tpQfdJ8z_NB4iug-ilj6-186" source="tpQfdJ8z_NB4iug-ilj6-58" target="tpQfdJ8z_NB4iug-ilj6-143">
          <mxGeometry relative="1" as="geometry" />
        </mxCell>
        <mxCell id="tpQfdJ8z_NB4iug-ilj6-183" style="edgeStyle=orthogonalEdgeStyle;rounded=0;orthogonalLoop=1;jettySize=auto;html=1;entryX=0;entryY=0;entryDx=74.68181818181819;entryDy=239.99999999999997;entryPerimeter=0;" edge="1" parent="tpQfdJ8z_NB4iug-ilj6-186" source="tpQfdJ8z_NB4iug-ilj6-58" target="tpQfdJ8z_NB4iug-ilj6-150">
          <mxGeometry relative="1" as="geometry" />
        </mxCell>
        <mxCell id="tpQfdJ8z_NB4iug-ilj6-184" style="edgeStyle=orthogonalEdgeStyle;rounded=0;orthogonalLoop=1;jettySize=auto;html=1;entryX=0;entryY=0;entryDx=74.68181818181819;entryDy=239.99999999999997;entryPerimeter=0;" edge="1" parent="tpQfdJ8z_NB4iug-ilj6-186" source="tpQfdJ8z_NB4iug-ilj6-58" target="tpQfdJ8z_NB4iug-ilj6-160">
          <mxGeometry relative="1" as="geometry" />
        </mxCell>
        <mxCell id="tpQfdJ8z_NB4iug-ilj6-185" value="HTTP" style="edgeStyle=orthogonalEdgeStyle;rounded=0;orthogonalLoop=1;jettySize=auto;html=1;entryX=0;entryY=0;entryDx=74.68181818181819;entryDy=239.99999999999997;entryPerimeter=0;fontSize=21;" edge="1" parent="tpQfdJ8z_NB4iug-ilj6-186" source="tpQfdJ8z_NB4iug-ilj6-58" target="tpQfdJ8z_NB4iug-ilj6-172">
          <mxGeometry x="-0.8403" relative="1" as="geometry">
            <mxPoint y="1" as="offset" />
          </mxGeometry>
        </mxCell>
      </root>
    </mxGraphModel>
  </diagram>
</mxfile>
